# Blender 5.0.1
# www.blender.org
mtllib camera.mtl
o camera
v 0.027374 -0.017000 -0.023079
v 0.032130 -0.017000 -0.019663
v 0.029014 -0.017000 -0.022893
v 0.030254 -0.017000 -0.022439
v 0.031238 -0.017000 -0.021732
v 0.031870 -0.017000 -0.020841
v 0.032130 -0.017000 0.019663
v 0.027374 -0.017000 0.023079
v 0.031870 -0.017000 0.020841
v 0.031238 -0.017000 0.021732
v 0.030254 -0.017000 0.022439
v 0.029014 -0.017000 0.022893
v -0.032130 -0.017000 -0.019663
v -0.027374 -0.017000 -0.023079
v -0.031870 -0.017000 -0.020841
v -0.031238 -0.017000 -0.021732
v -0.030254 -0.017000 -0.022439
v -0.029014 -0.017000 -0.022893
v -0.027374 -0.017000 0.023079
v -0.032130 -0.017000 0.019663
v -0.029014 -0.017000 0.022893
v -0.030254 -0.017000 0.022439
v -0.031238 -0.017000 0.021732
v -0.031870 -0.017000 0.020841
v 0.035500 0.017000 -0.019854
v 0.027640 0.017000 -0.025500
v 0.035115 0.017000 -0.021599
v 0.033999 0.017000 -0.023173
v 0.032260 0.017000 -0.024422
v 0.030069 0.017000 -0.025224
v 0.027640 0.017000 0.025500
v 0.035500 0.017000 0.019854
v 0.030069 0.017000 0.025224
v 0.032260 0.017000 0.024422
v 0.033999 0.017000 0.023173
v 0.035115 0.017000 0.021599
v -0.027640 0.017000 -0.025500
v -0.035500 0.017000 -0.019854
v -0.030069 0.017000 -0.025224
v -0.032260 0.017000 -0.024422
v -0.033999 0.017000 -0.023173
v -0.035115 0.017000 -0.021599
v -0.035500 0.017000 0.019854
v -0.027640 0.017000 0.025500
v -0.035115 0.017000 0.021599
v -0.033999 0.017000 0.023173
v -0.032260 0.017000 0.024422
v -0.030069 0.017000 0.025224
v -0.027640 -0.017000 -0.025500
v -0.030069 -0.017000 -0.025224
v -0.032260 -0.017000 -0.024422
v -0.033999 -0.017000 -0.023173
v -0.035115 -0.017000 -0.021599
v -0.035500 -0.017000 -0.019854
v -0.030069 -0.017000 0.025224
v -0.027640 -0.017000 0.025500
v -0.032260 -0.017000 0.024422
v -0.033999 -0.017000 0.023173
v -0.035115 -0.017000 0.021599
v -0.035500 -0.017000 0.019854
v 0.030069 -0.017000 -0.025224
v 0.027640 -0.017000 -0.025500
v 0.032260 -0.017000 -0.024422
v 0.033999 -0.017000 -0.023173
v 0.035115 -0.017000 -0.021599
v 0.035500 -0.017000 -0.019854
v 0.027640 -0.017000 0.025500
v 0.030069 -0.017000 0.025224
v 0.032260 -0.017000 0.024422
v 0.033999 -0.017000 0.023173
v 0.035115 -0.017000 0.021599
v 0.035500 -0.017000 0.019854
v -0.027374 -0.018226 -0.023079
v -0.029014 -0.018226 -0.022893
v -0.030254 -0.018226 -0.022439
v -0.031238 -0.018226 -0.021732
v -0.031870 -0.018226 -0.020841
v -0.032130 -0.018226 -0.019663
v -0.029014 -0.018226 0.022893
v -0.027374 -0.018226 0.023079
v -0.030254 -0.018226 0.022439
v -0.031238 -0.018226 0.021732
v -0.031870 -0.018226 0.020841
v -0.032130 -0.018226 0.019663
v 0.029014 -0.018226 -0.022893
v 0.027374 -0.018226 -0.023079
v 0.030254 -0.018226 -0.022439
v 0.031238 -0.018226 -0.021732
v 0.031870 -0.018226 -0.020841
v 0.032130 -0.018226 -0.019663
v 0.027374 -0.018226 0.023079
v 0.029014 -0.018226 0.022893
v 0.030254 -0.018226 0.022439
v 0.031238 -0.018226 0.021732
v 0.031870 -0.018226 0.020841
v 0.032130 -0.018226 0.019663
v 0.026756 -0.019989 -0.002646
v 0.028075 -0.019989 -0.001698
v 0.027313 -0.019989 -0.002582
v 0.027605 -0.019989 -0.002475
v 0.027837 -0.019989 -0.002309
v 0.027986 -0.019989 -0.002099
v 0.028075 -0.019989 0.019480
v 0.026756 -0.019989 0.020428
v 0.027986 -0.019989 0.019881
v 0.027837 -0.019989 0.020091
v 0.027605 -0.019989 0.020257
v 0.027313 -0.019989 0.020364
v 0.006671 -0.019989 -0.001698
v 0.007989 -0.019989 -0.002646
v 0.006759 -0.019989 -0.002099
v 0.006908 -0.019989 -0.002309
v 0.007140 -0.019989 -0.002475
v 0.007432 -0.019989 -0.002582
v 0.007989 -0.019989 0.020428
v 0.006671 -0.019989 0.019480
v 0.007432 -0.019989 0.020364
v 0.007140 -0.019989 0.020257
v 0.006908 -0.019989 0.020091
v 0.006759 -0.019989 0.019881
v 0.007756 -0.018226 -0.004774
v 0.003708 -0.018226 -0.001866
v 0.006505 -0.018226 -0.004631
v 0.005377 -0.018226 -0.004218
v 0.004481 -0.018226 -0.003575
v 0.003906 -0.018226 -0.002764
v 0.003708 -0.018226 0.019648
v 0.007756 -0.018226 0.022556
v 0.003906 -0.018226 0.020546
v 0.004481 -0.018226 0.021357
v 0.005377 -0.018226 0.022000
v 0.006505 -0.018226 0.022413
v 0.031037 -0.018226 -0.001866
v 0.026989 -0.018226 -0.004774
v 0.030839 -0.018226 -0.002764
v 0.030264 -0.018226 -0.003575
v 0.029369 -0.018226 -0.004218
v 0.028240 -0.018226 -0.004631
v 0.026989 -0.018226 0.022556
v 0.031037 -0.018226 0.019648
v 0.028240 -0.018226 0.022413
v 0.029369 -0.018226 0.022000
v 0.030264 -0.018226 0.021357
v 0.030839 -0.018226 0.020546
v 0.007756 -0.019989 -0.004774
v 0.006505 -0.019989 -0.004631
v 0.005377 -0.019989 -0.004218
v 0.004481 -0.019989 -0.003575
v 0.003906 -0.019989 -0.002764
v 0.003708 -0.019989 -0.001866
v 0.026989 -0.019989 0.022556
v 0.028240 -0.019989 0.022413
v 0.029369 -0.019989 0.022000
v 0.030264 -0.019989 0.021357
v 0.030839 -0.019989 0.020546
v 0.031037 -0.019989 0.019648
v 0.006505 -0.019989 0.022413
v 0.007756 -0.019989 0.022556
v 0.005377 -0.019989 0.022000
v 0.004481 -0.019989 0.021357
v 0.003906 -0.019989 0.020546
v 0.003708 -0.019989 0.019648
v 0.028240 -0.019989 -0.004631
v 0.026989 -0.019989 -0.004774
v 0.029369 -0.019989 -0.004218
v 0.030264 -0.019989 -0.003575
v 0.030839 -0.019989 -0.002764
v 0.031037 -0.019989 -0.001866
v 0.007989 -0.019610 -0.002646
v 0.007432 -0.019610 -0.002582
v 0.007140 -0.019610 -0.002475
v 0.006908 -0.019610 -0.002309
v 0.006759 -0.019610 -0.002099
v 0.006671 -0.019610 -0.001698
v 0.026756 -0.019610 0.020428
v 0.027313 -0.019610 0.020364
v 0.027605 -0.019610 0.020257
v 0.027837 -0.019610 0.020091
v 0.027986 -0.019610 0.019881
v 0.028075 -0.019610 0.019480
v 0.007432 -0.019610 0.020364
v 0.007989 -0.019610 0.020428
v 0.007140 -0.019610 0.020257
v 0.006908 -0.019610 0.020091
v 0.006759 -0.019610 0.019881
v 0.006671 -0.019610 0.019480
v 0.027313 -0.019610 -0.002582
v 0.026756 -0.019610 -0.002646
v 0.027605 -0.019610 -0.002475
v 0.027837 -0.019610 -0.002309
v 0.027986 -0.019610 -0.002099
v 0.028075 -0.019610 -0.001698
v 0.027640 -0.013871 -0.026994
v 0.027640 0.013871 -0.026994
v -0.027640 0.013871 -0.026994
v -0.027640 -0.013871 -0.026994
v -0.027640 -0.013871 -0.025500
v -0.027640 0.013871 -0.025500
v -0.030069 0.013871 -0.025224
v -0.030069 -0.013871 -0.025224
v -0.032260 0.013871 -0.024422
v -0.032260 -0.013871 -0.024422
v -0.033999 0.013871 -0.023173
v -0.033999 -0.013871 -0.023173
v -0.035115 0.013871 -0.021599
v -0.035115 -0.013871 -0.021599
v -0.035500 0.013871 -0.019854
v -0.035500 -0.013871 -0.019854
v -0.027640 0.013871 0.025500
v -0.027640 -0.013871 0.025500
v -0.030069 -0.013871 0.025224
v -0.030069 0.013871 0.025224
v -0.032260 -0.013871 0.024422
v -0.032260 0.013871 0.024422
v -0.033999 -0.013871 0.023173
v -0.033999 0.013871 0.023173
v -0.035115 -0.013871 0.021599
v -0.035115 0.013871 0.021599
v -0.035500 -0.013871 0.019854
v -0.035500 0.013871 0.019854
v 0.027640 0.013871 -0.025500
v 0.027640 -0.013871 -0.025500
v 0.030069 -0.013871 -0.025224
v 0.030069 0.013871 -0.025224
v 0.032260 -0.013871 -0.024422
v 0.032260 0.013871 -0.024422
v 0.033999 -0.013871 -0.023173
v 0.033999 0.013871 -0.023173
v 0.035115 -0.013871 -0.021599
v 0.035115 0.013871 -0.021599
v 0.035500 -0.013871 -0.019854
v 0.035500 0.013871 -0.019854
v 0.027640 -0.013871 0.025500
v 0.027640 0.013871 0.025500
v 0.030069 0.013871 0.025224
v 0.030069 -0.013871 0.025224
v 0.032260 0.013871 0.024422
v 0.032260 -0.013871 0.024422
v 0.033999 0.013871 0.023173
v 0.033999 -0.013871 0.023173
v 0.035115 0.013871 0.021599
v 0.035115 -0.013871 0.021599
v 0.035500 0.013871 0.019854
v 0.035500 -0.013871 0.019854
vn -0.0000 -1.0000 -0.0000
vn -0.0000 -0.0000 -1.0000
vn -0.3437 -0.0000 0.9391
vn -0.0000 1.0000 -0.0000
vn 1.0000 -0.0000 -0.0000
vn 0.9765 -0.0000 -0.2153
vn -0.5834 -0.0000 0.8122
vn -0.0000 -0.0000 1.0000
vn -0.1130 -0.0000 -0.9936
vn 0.1130 -0.0000 0.9936
vn -0.8156 -0.0000 0.5786
vn -1.0000 -0.0000 -0.0000
vn -0.3437 -0.0000 -0.9391
vn 0.3437 -0.0000 0.9391
vn -0.9765 -0.0000 0.2153
vn -0.5834 -0.0000 -0.8122
vn 0.5834 -0.0000 0.8122
vn 0.1130 -0.0000 -0.9936
vn -0.8156 -0.0000 -0.5786
vn 0.8156 -0.0000 0.5786
vn 0.3437 -0.0000 -0.9391
vn -0.9765 -0.0000 -0.2153
vn 0.9765 -0.0000 0.2153
vn 0.5834 -0.0000 -0.8122
vn -0.1130 -0.0000 0.9936
vn 0.8156 -0.0000 -0.5786
vt 0.148010 0.722323
vt 0.148010 0.527677
vt 0.351990 0.527677
vt 0.351990 0.722323
vt 0.612686 0.228582
vt 0.610593 0.233527
vt 0.375000 0.527677
vt 0.375452 0.519125
vt 0.376762 0.511409
vt 0.378803 0.501762
vt 0.394125 0.500452
vt 0.402677 0.500000
vt 0.597323 0.500000
vt 0.605875 0.500452
vt 0.613591 0.501762
vt 0.623238 0.503803
vt 0.624548 0.519125
vt 0.625000 0.527677
vt 0.625000 0.722323
vt 0.624548 0.730875
vt 0.623238 0.746197
vt 0.613591 0.748238
vt 0.605876 0.749548
vt 0.597323 0.750000
vt 0.402677 0.750000
vt 0.394125 0.749549
vt 0.378803 0.748238
vt 0.376762 0.738591
vt 0.375452 0.730875
vt 0.375000 0.722323
vt 0.386539 0.221583
vt 0.387212 0.227485
vt 0.376355 0.230876
vt 0.375000 0.222323
vt 0.389020 0.232079
vt 0.380286 0.238591
vt 0.392174 0.235757
vt 0.380704 0.247357
vt 0.396826 0.237904
vt 0.394125 0.249548
vt 0.403064 0.238551
vt 0.402677 0.250000
vt 0.613385 0.222178
vt 0.625000 0.222323
vt 0.623645 0.230876
vt 0.622357 0.244296
vt 0.606984 0.236941
vt 0.613591 0.248238
vt 0.602425 0.238627
vt 0.605876 0.249548
vt 0.596539 0.238961
vt 0.597323 0.250000
vt 0.387779 0.022843
vt 0.386864 0.028617
vt 0.375000 0.027677
vt 0.376355 0.019124
vt 0.390004 0.018476
vt 0.380286 0.011409
vt 0.393469 0.015011
vt 0.386409 0.005286
vt 0.397835 0.012786
vt 0.394124 0.001355
vt 0.403609 0.011872
vt 0.402677 0.000000
vt 0.613133 0.028618
vt 0.612218 0.022843
vt 0.623645 0.019124
vt 0.625000 0.027677
vt 0.609994 0.018477
vt 0.619714 0.011409
vt 0.606528 0.015012
vt 0.613591 0.005286
vt 0.602162 0.012787
vt 0.605876 0.001355
vt 0.596388 0.011873
vt 0.597323 0.000000
vt 0.250000 0.537030
vt 0.125000 0.537030
vt 0.125000 0.525587
vt 0.250000 0.525587
vt 0.125000 0.500000
vt 0.250000 0.500000
vt 0.375000 0.375000
vt 0.377540 0.242368
vt 0.385965 0.247643
vt 0.385965 0.375000
vt 0.393380 0.249396
vt 0.393380 0.375000
vt 0.401599 0.250000
vt 0.401599 0.375000
vt 0.750000 0.712970
vt 0.875000 0.712970
vt 0.875000 0.724413
vt 0.750000 0.724413
vt 0.875000 0.750000
vt 0.750000 0.750000
vt 0.625000 0.875000
vt 0.625000 1.000000
vt 0.614035 1.000000
vt 0.614035 0.875000
vt 0.606620 1.000000
vt 0.606620 0.875000
vt 0.598401 1.000000
vt 0.598401 0.875000
vt 0.875000 0.537030
vt 0.750000 0.537030
vt 0.750000 0.525587
vt 0.875000 0.525587
vt 0.750000 0.500000
vt 0.875000 0.500000
vt 0.622460 0.242368
vt 0.625000 0.375000
vt 0.614035 0.375000
vt 0.614035 0.247643
vt 0.606620 0.375000
vt 0.606620 0.249396
vt 0.598401 0.375000
vt 0.598401 0.250000
vt 0.125000 0.712970
vt 0.250000 0.712970
vt 0.250000 0.724413
vt 0.125000 0.724413
vt 0.250000 0.750000
vt 0.125000 0.750000
vt 0.375000 1.000000
vt 0.375000 0.875000
vt 0.385965 0.875000
vt 0.385965 1.000000
vt 0.393380 0.875000
vt 0.393380 1.000000
vt 0.401599 0.875000
vt 0.401599 1.000000
vt 0.600789 0.223586
vt 0.597072 0.224129
vt 0.394220 0.212055
vt 0.394751 0.217424
vt 0.376302 0.224413
vt 0.375000 0.212970
vt 0.395720 0.220204
vt 0.397259 0.222326
vt 0.399211 0.223586
vt 0.402928 0.224129
vt 0.605536 0.039196
vt 0.604956 0.034097
vt 0.623698 0.025587
vt 0.625000 0.037030
vt 0.603977 0.031422
vt 0.619920 0.015264
vt 0.602453 0.029299
vt 0.614035 0.007072
vt 0.600532 0.027937
vt 0.606620 0.001812
vt 0.596871 0.027132
vt 0.598401 0.000000
vt 0.605249 0.217424
vt 0.605780 0.212055
vt 0.625000 0.212970
vt 0.623698 0.224413
vt 0.604280 0.220204
vt 0.602741 0.222326
vt 0.395044 0.034097
vt 0.394464 0.039196
vt 0.375000 0.037030
vt 0.376302 0.025587
vt 0.396023 0.031422
vt 0.380080 0.015264
vt 0.397547 0.029299
vt 0.385965 0.007072
vt 0.399468 0.027937
vt 0.393380 0.001812
vt 0.403129 0.027132
vt 0.401599 0.000000
vt 0.597323 0.476990
vt 0.402677 0.476990
vt 0.402677 0.273010
vt 0.597323 0.273010
vt 0.851990 0.527677
vt 0.851990 0.722323
vt 0.648010 0.722323
vt 0.648010 0.527677
vt 0.597323 0.976990
vt 0.402677 0.976990
vt 0.402677 0.773010
vt 0.597323 0.773010
vt 0.605875 0.976948
vt 0.605876 0.772600
vt 0.613591 0.976828
vt 0.613591 0.771410
vt 0.624838 0.976640
vt 0.623400 0.769557
vt 0.851948 0.730875
vt 0.851828 0.749650
vt 0.646410 0.746547
vt 0.647600 0.730875
vt 0.394125 0.772600
vt 0.394125 0.976948
vt 0.378453 0.771410
vt 0.375350 0.976828
vt 0.353590 0.738591
vt 0.355443 0.748400
vt 0.148360 0.749838
vt 0.148172 0.738591
vt 0.352400 0.730875
vt 0.148052 0.730876
vt 0.605875 0.477358
vt 0.605876 0.272642
vt 0.613591 0.478428
vt 0.613591 0.271572
vt 0.623157 0.479918
vt 0.622438 0.268181
vt 0.647600 0.519125
vt 0.646410 0.503453
vt 0.851828 0.500350
vt 0.851948 0.519125
vt 0.394125 0.272642
vt 0.394125 0.477358
vt 0.380529 0.270772
vt 0.378978 0.478347
vt 0.148172 0.511409
vt 0.148360 0.500162
vt 0.355443 0.501600
vt 0.353590 0.511409
vt 0.148052 0.519125
vt 0.352400 0.519125
vt 0.125000 0.527677
vt 0.125000 0.722323
vt 0.125000 0.519125
vt 0.125000 0.511409
vt 0.875000 0.527677
vt 0.875000 0.519125
vt 0.875000 0.722323
vt 0.125000 0.730876
vt 0.125000 0.738591
vt 0.394125 1.000000
vt 0.402677 1.000000
vt 0.597323 1.000000
vt 0.875000 0.730875
vt 0.613591 1.000000
vt 0.605875 1.000000
s 0
f 222/1/1 197/2/1 196/2/1 193/1/1
f 195/3/2 194/4/2 193/1/2 196/2/2
f 21/5/3 22/6/3 81/6/3 79/5/3
f 37/7/4 39/8/4 40/9/4 41/10/4 42/11/4 38/12/4 43/13/4 45/14/4 46/15/4 47/16/4 48/17/4 44/18/4 31/19/4 33/20/4 34/21/4 35/22/4 36/23/4 32/24/4 25/25/4 27/26/4 28/27/4 29/28/4 30/29/4 26/30/4
f 14/31/1 18/32/1 50/33/1 49/34/1
f 18/32/1 17/35/1 51/36/1 50/33/1
f 17/35/1 16/37/1 52/38/1 51/36/1
f 16/37/1 15/39/1 53/40/1 52/38/1
f 15/39/1 13/41/1 54/42/1 53/40/1
f 21/5/1 19/43/1 56/44/1 55/45/1
f 22/6/1 21/5/1 55/45/1 57/46/1
f 23/47/1 22/6/1 57/46/1 58/48/1
f 24/49/1 23/47/1 58/48/1 59/50/1
f 20/51/1 24/49/1 59/50/1 60/52/1
f 3/53/1 1/54/1 62/55/1 61/56/1
f 4/57/1 3/53/1 61/56/1 63/58/1
f 5/59/1 4/57/1 63/58/1 64/60/1
f 6/61/1 5/59/1 64/60/1 65/62/1
f 2/63/1 6/61/1 65/62/1 66/64/1
f 8/65/1 12/66/1 68/67/1 67/68/1
f 12/66/1 11/69/1 69/70/1 68/67/1
f 11/69/1 10/71/1 70/72/1 69/70/1
f 10/71/1 9/73/1 71/74/1 70/72/1
f 9/73/1 7/75/1 72/76/1 71/74/1
f 1/54/1 14/31/1 49/34/1 62/55/1
f 7/75/1 2/63/1 66/64/1 72/76/1
f 19/43/1 8/65/1 67/68/1 56/44/1
f 13/41/1 20/51/1 60/52/1 54/42/1
f 86/54/1 85/53/1 87/57/1 88/59/1 89/61/1 90/63/1 96/75/1 95/73/1 94/71/1 93/69/1 92/66/1 91/65/1 80/43/1 79/5/1 81/6/1 82/47/1 83/49/1 84/51/1 78/41/1 77/39/1 76/37/1 75/35/1 74/32/1 73/31/1
f 2/63/5 7/75/5 96/75/5 90/63/5
f 6/61/6 2/63/6 90/63/6 89/61/6
f 22/6/7 23/47/7 82/47/7 81/6/7
f 8/65/8 19/43/8 80/43/8 91/65/8
f 18/32/9 14/31/9 73/31/9 74/32/9
f 12/66/10 8/65/10 91/65/10 92/66/10
f 23/47/11 24/49/11 83/49/11 82/47/11
f 20/51/12 13/41/12 78/41/12 84/51/12
f 17/35/13 18/32/13 74/32/13 75/35/13
f 11/69/14 12/66/14 92/66/14 93/69/14
f 24/49/15 20/51/15 84/51/15 83/49/15
f 16/37/16 17/35/16 75/35/16 76/37/16
f 10/71/17 11/69/17 93/69/17 94/71/17
f 1/54/18 3/53/18 85/53/18 86/54/18
f 15/39/19 16/37/19 76/37/19 77/39/19
f 9/73/20 10/71/20 94/71/20 95/73/20
f 3/53/21 4/57/21 87/57/21 85/53/21
f 13/41/22 15/39/22 77/39/22 78/41/22
f 7/75/23 9/73/23 95/73/23 96/75/23
f 4/57/24 5/59/24 88/59/24 87/57/24
f 19/43/25 21/5/25 79/5/25 80/43/25
f 14/31/2 1/54/2 86/54/2 73/31/2
f 5/59/26 6/61/26 89/61/26 88/59/26
f 121/77/9 145/78/9 146/79/9 123/80/9
f 123/80/13 146/79/13 147/81/13 124/82/13
f 124/83/16 147/84/16 148/85/16 125/86/16
f 125/86/19 148/85/19 149/87/19 126/88/19
f 126/88/22 149/87/22 150/89/22 122/90/22
f 139/91/10 151/92/10 152/93/10 141/94/10
f 141/94/14 152/93/14 153/95/14 142/96/14
f 142/97/17 153/98/17 154/99/17 143/100/17
f 143/100/20 154/99/20 155/101/20 144/102/20
f 144/102/23 155/101/23 156/103/23 140/104/23
f 158/105/25 128/106/25 132/107/25 157/108/25
f 157/108/3 132/107/3 131/109/3 159/110/3
f 159/111/7 131/112/7 130/113/7 160/114/7
f 160/114/11 130/113/11 129/115/11 161/116/11
f 161/116/15 129/115/15 127/117/15 162/118/15
f 164/119/18 134/120/18 138/121/18 163/122/18
f 163/122/21 138/121/21 137/123/21 165/124/21
f 165/125/24 137/126/24 136/127/24 166/128/24
f 166/128/26 136/127/26 135/129/26 167/130/26
f 167/130/6 135/129/6 133/131/6 168/132/6
f 145/78/2 121/77/2 134/120/2 164/119/2
f 120/133/6 116/134/6 186/134/6 185/133/6
f 133/131/5 140/104/5 156/103/5 168/132/5
f 128/106/8 158/105/8 151/92/8 139/91/8
f 150/89/12 162/118/12 127/117/12 122/90/12
f 110/135/1 114/136/1 146/137/1 145/138/1
f 114/136/1 113/139/1 147/84/1 146/137/1
f 113/139/1 112/140/1 148/85/1 147/84/1
f 112/140/1 111/141/1 149/87/1 148/85/1
f 111/141/1 109/142/1 150/89/1 149/87/1
f 104/143/1 108/144/1 152/145/1 151/146/1
f 108/144/1 107/147/1 153/148/1 152/145/1
f 107/147/1 106/149/1 154/150/1 153/148/1
f 106/149/1 105/151/1 155/152/1 154/150/1
f 105/151/1 103/153/1 156/154/1 155/152/1
f 117/155/1 115/156/1 158/157/1 157/158/1
f 118/159/1 117/155/1 157/158/1 159/111/1
f 119/160/1 118/159/1 159/111/1 160/114/1
f 120/133/1 119/160/1 160/114/1 161/116/1
f 116/134/1 120/133/1 161/116/1 162/118/1
f 99/161/1 97/162/1 164/163/1 163/164/1
f 100/165/1 99/161/1 163/164/1 165/166/1
f 101/167/1 100/165/1 165/166/1 166/168/1
f 102/169/1 101/167/1 166/168/1 167/170/1
f 98/171/1 102/169/1 167/170/1 168/172/1
f 97/162/1 110/135/1 145/138/1 164/163/1
f 103/153/1 98/171/1 168/172/1 156/154/1
f 115/156/1 104/143/1 151/146/1 158/157/1
f 109/142/1 116/134/1 162/118/1 150/89/1
f 188/162/1 187/161/1 189/165/1 190/167/1 191/169/1 192/171/1 180/153/1 179/151/1 178/149/1 177/147/1 176/144/1 175/143/1 182/156/1 181/155/1 183/159/1 184/160/1 185/133/1 186/134/1 174/142/1 173/141/1 172/140/1 171/139/1 170/136/1 169/135/1
f 106/149/16 107/147/16 177/147/16 178/149/16
f 104/143/2 115/156/2 182/156/2 175/143/2
f 114/136/10 110/135/10 169/135/10 170/136/10
f 97/162/25 99/161/25 187/161/25 188/162/25
f 105/151/19 106/149/19 178/149/19 179/151/19
f 116/134/5 109/142/5 174/142/5 186/134/5
f 113/139/14 114/136/14 170/136/14 171/139/14
f 99/161/3 100/165/3 189/165/3 187/161/3
f 103/153/22 105/151/22 179/151/22 180/153/22
f 112/140/17 113/139/17 171/139/17 172/140/17
f 100/165/7 101/167/7 190/167/7 189/165/7
f 115/156/18 117/155/18 181/155/18 182/156/18
f 111/141/20 112/140/20 172/140/20 173/141/20
f 101/167/11 102/169/11 191/169/11 190/167/11
f 117/155/21 118/159/21 183/159/21 181/155/21
f 109/142/23 111/141/23 173/141/23 174/142/23
f 102/169/15 98/171/15 192/171/15 191/169/15
f 118/159/24 119/160/24 184/160/24 183/159/24
f 108/144/9 104/143/9 175/143/9 176/144/9
f 110/135/8 97/162/8 188/162/8 169/135/8
f 119/160/26 120/133/26 185/133/26 184/160/26
f 107/147/13 108/144/13 176/144/13 177/147/13
f 98/171/12 103/153/12 180/153/12 192/171/12
f 198/3/4 221/4/4 194/4/4 195/3/4
f 197/2/12 198/3/12 195/3/12 196/2/12
f 220/173/12 207/174/12 208/175/12 219/176/12
f 210/177/8 233/178/8 234/179/8 209/180/8
f 244/181/5 231/182/5 232/183/5 243/184/5
f 221/4/5 222/1/5 193/1/5 194/4/5
f 242/185/23 244/181/23 243/184/23 241/186/23
f 240/187/20 242/185/20 241/186/20 239/188/20
f 238/189/17 240/187/17 239/188/17 237/190/17
f 236/191/14 238/192/14 237/193/14 235/194/14
f 233/178/10 236/191/10 235/194/10 234/179/10
f 230/195/6 232/183/6 231/182/6 229/196/6
f 228/197/26 230/195/26 229/196/26 227/198/26
f 226/199/24 228/200/24 227/201/24 225/202/24
f 224/203/21 226/199/21 225/202/21 223/204/21
f 221/4/18 224/203/18 223/204/18 222/1/18
f 218/205/15 220/173/15 219/176/15 217/206/15
f 216/207/11 218/205/11 217/206/11 215/208/11
f 214/209/7 216/207/7 215/208/7 213/210/7
f 212/211/3 214/212/3 213/213/3 211/214/3
f 209/180/25 212/211/25 211/214/25 210/177/25
f 206/215/22 208/175/22 207/174/22 205/216/22
f 204/217/19 206/215/19 205/216/19 203/218/19
f 202/219/16 204/220/16 203/221/16 201/222/16
f 200/223/13 202/219/13 201/222/13 199/224/13
f 197/2/9 200/223/9 199/224/9 198/3/9
f 49/225/2 197/2/2 222/1/2 62/226/2
f 37/7/9 198/3/9 199/224/9 39/8/9
f 197/2/9 49/225/9 50/227/9 200/223/9
f 198/3/2 37/7/2 26/30/2 221/4/2
f 200/223/13 50/227/13 51/228/13 202/219/13
f 39/8/13 199/224/13 201/222/13 40/9/13
f 202/219/16 51/228/16 52/81/16 204/220/16
f 40/9/16 201/222/16 203/221/16 41/10/16
f 204/217/19 52/38/19 53/40/19 206/215/19
f 41/10/19 203/218/19 205/216/19 42/11/19
f 206/215/22 53/40/22 54/42/22 208/175/22
f 42/11/22 205/216/22 207/174/22 38/12/22
f 54/42/12 60/52/12 219/176/12 208/175/12
f 207/174/12 220/173/12 43/13/12 38/12/12
f 44/18/8 209/180/8 234/179/8 31/19/8
f 56/229/25 210/177/25 211/214/25 55/230/25
f 209/180/25 44/18/25 48/17/25 212/211/25
f 210/177/8 56/229/8 67/231/8 233/178/8
f 212/211/3 48/17/3 47/16/3 214/212/3
f 55/230/3 211/214/3 213/213/3 57/110/3
f 214/209/7 47/16/7 46/15/7 216/207/7
f 57/46/7 213/210/7 215/208/7 58/48/7
f 216/207/11 46/15/11 45/14/11 218/205/11
f 58/48/11 215/208/11 217/206/11 59/50/11
f 218/205/15 45/14/15 43/13/15 220/173/15
f 59/50/15 217/206/15 219/176/15 60/52/15
f 62/226/18 222/1/18 223/204/18 61/232/18
f 221/4/18 26/30/18 30/29/18 224/203/18
f 224/203/21 30/29/21 29/28/21 226/199/21
f 61/232/21 223/204/21 225/202/21 63/233/21
f 226/199/24 29/28/24 28/27/24 228/200/24
f 63/233/24 225/202/24 227/201/24 64/124/24
f 228/197/26 28/27/26 27/26/26 230/195/26
f 64/125/26 227/198/26 229/196/26 65/234/26
f 230/195/6 27/26/6 25/25/6 232/183/6
f 65/234/6 229/196/6 231/182/6 66/235/6
f 25/25/5 32/24/5 243/184/5 232/183/5
f 231/182/5 244/181/5 72/236/5 66/235/5
f 31/19/10 234/179/10 235/194/10 33/20/10
f 233/178/10 67/231/10 68/237/10 236/191/10
f 236/191/14 68/237/14 69/95/14 238/192/14
f 33/20/14 235/194/14 237/193/14 34/21/14
f 238/189/17 69/98/17 70/238/17 240/187/17
f 34/21/17 237/190/17 239/188/17 35/22/17
f 240/187/20 70/238/20 71/239/20 242/185/20
f 35/22/20 239/188/20 241/186/20 36/23/20
f 242/185/23 71/239/23 72/236/23 244/181/23
f 36/23/23 241/186/23 243/184/23 32/24/23
