# Blender 5.0.1
# www.blender.org
mtllib yaw_base.mtl
o yaw_base
v -0.012215 -0.012215 0.005000
v -0.014276 -0.009130 0.005000
v -0.015000 -0.005491 0.005000
v 0.005491 -0.015000 0.005000
v 0.009130 -0.014276 0.005000
v 0.012215 -0.012215 0.005000
v 0.014276 -0.009130 0.005000
v 0.015000 -0.005491 0.005000
v 0.015000 -0.005491 -0.000000
v 0.005491 -0.015000 -0.000000
v 0.014276 -0.009130 -0.000000
v 0.012215 -0.012215 -0.000000
v 0.009130 -0.014276 -0.000000
v 0.014276 -0.009130 0.011108
v 0.012215 -0.012215 0.011108
v 0.009130 -0.014276 0.011108
v -0.014276 -0.009130 0.011108
v -0.012215 -0.012215 0.011108
v -0.005491 -0.015000 -0.000000
v -0.015000 -0.005491 -0.000000
v -0.009130 -0.014276 -0.000000
v -0.012215 -0.012215 -0.000000
v -0.014276 -0.009130 -0.000000
v -0.009130 -0.014276 0.011108
v -0.009130 0.014276 0.011108
v -0.012215 0.012215 0.011108
v -0.014276 0.009130 0.011108
v 0.014276 0.009130 0.011108
v 0.005491 0.015000 -0.000000
v 0.015000 0.005491 -0.000000
v 0.009130 0.014276 -0.000000
v 0.012215 0.012215 -0.000000
v 0.014276 0.009130 -0.000000
v 0.012215 0.012215 0.011108
v 0.009130 0.014276 0.011108
v -0.005491 -0.015000 0.011108
v 0.005491 -0.015000 0.011108
v 0.015000 -0.005491 0.011108
v -0.015000 0.005491 -0.000000
v -0.005491 0.015000 -0.000000
v -0.014276 0.009130 -0.000000
v -0.012215 0.012215 -0.000000
v -0.009130 0.014276 -0.000000
v 0.015000 0.005491 0.011108
v -0.015000 0.005491 0.011108
v -0.015000 -0.005491 0.011108
v 0.005491 0.015000 0.011108
v -0.005491 0.015000 0.011108
v -0.009130 -0.014276 0.005000
v -0.005491 -0.015000 0.005000
v -0.005491 0.015000 0.005000
v -0.009130 0.014276 0.005000
v -0.012215 0.012215 0.005000
v -0.014276 0.009130 0.005000
v -0.015000 0.005491 0.005000
v 0.015000 0.005491 0.005000
v 0.014276 0.009130 0.005000
v 0.012215 0.012215 0.005000
v 0.009130 0.014276 0.005000
v 0.005491 0.015000 0.005000
v 0.015000 -0.005491 0.015076
v 0.014276 -0.009130 0.015076
v 0.012215 -0.012215 0.015076
v 0.009130 -0.014276 0.015076
v 0.005491 -0.015000 0.015076
v -0.015000 -0.005491 0.015076
v -0.014276 -0.009130 0.015076
v -0.012215 -0.012215 0.015076
v -0.009130 -0.014276 0.015076
v -0.005491 -0.015000 0.015076
v -0.005491 0.015000 0.015076
v -0.009130 0.014276 0.015076
v -0.012215 0.012215 0.015076
v -0.014276 0.009130 0.015076
v -0.015000 0.005491 0.015076
v 0.015000 0.005491 0.015076
v 0.014276 0.009130 0.015076
v 0.012215 0.012215 0.015076
v 0.009130 0.014276 0.015076
v 0.005491 0.015000 0.015076
v 0.013408 -0.008575 0.005000
v 0.013408 -0.008575 0.011108
v -0.008575 0.013408 0.011108
v -0.008575 0.013408 0.005000
v 0.011472 -0.011472 0.005000
v 0.011472 -0.011472 0.011108
v 0.014088 -0.005157 0.011108
v 0.014088 -0.005157 0.005000
v -0.011472 0.011472 0.011108
v -0.011472 0.011472 0.005000
v 0.005157 -0.014088 0.011108
v 0.005157 -0.014088 0.005000
v 0.008575 -0.013408 0.005000
v 0.008575 -0.013408 0.011108
v -0.013408 0.008575 0.011108
v -0.013408 0.008575 0.005000
v -0.014088 0.005157 0.005000
v -0.014088 0.005157 0.011108
v -0.014088 -0.005157 0.011108
v -0.014088 -0.005157 0.005000
v 0.005157 0.014088 0.011108
v 0.005157 0.014088 0.005000
v -0.005157 0.014088 0.005000
v -0.005157 0.014088 0.011108
v 0.014088 0.005157 0.011108
v 0.014088 0.005157 0.005000
v -0.013408 -0.008575 0.011108
v -0.013408 -0.008575 0.005000
v 0.013408 0.008575 0.011108
v 0.013408 0.008575 0.005000
v -0.011472 -0.011472 0.011108
v -0.011472 -0.011472 0.005000
v 0.011472 0.011472 0.011108
v 0.011472 0.011472 0.005000
v 0.008575 0.013408 0.005000
v 0.008575 0.013408 0.011108
v -0.008575 -0.013408 0.011108
v -0.008575 -0.013408 0.005000
v -0.005157 -0.014088 0.005000
v -0.005157 -0.014088 0.011108
v -0.040486 0.005000 0.019547
v 0.035514 -0.005000 0.022573
v -0.040486 -0.005000 0.019547
v -0.035486 -0.005000 0.022573
v -0.040486 0.005000 0.022573
v 0.035514 0.005000 0.022573
v -0.040486 -0.005000 0.022573
v -0.035486 0.005000 0.022573
v 0.031042 -0.005000 0.015076
v 0.035514 -0.005000 0.019547
v -0.035486 -0.005000 0.019547
v -0.031014 -0.005000 0.015076
v 0.035514 0.005000 0.019547
v 0.031042 0.005000 0.015076
v -0.031014 0.005000 0.015076
v -0.035486 0.005000 0.019547
v 0.040514 0.005000 0.022573
v 0.040514 -0.005000 0.022573
v 0.040514 0.005000 0.019547
v 0.040514 -0.005000 0.019547
v -0.035486 0.005000 0.051145
v -0.040486 0.005000 0.051145
v -0.035486 -0.005000 0.051145
v -0.040486 -0.005000 0.051145
v 0.035514 0.005000 0.051145
v 0.035514 -0.005000 0.051145
v 0.040514 0.005000 0.051145
v 0.040514 -0.005000 0.051145
v -0.035486 0.005000 0.061145
v -0.040486 0.005000 0.061145
v -0.035486 -0.005000 0.061145
v -0.040486 -0.005000 0.061145
v 0.035514 0.005000 0.061145
v 0.035514 -0.005000 0.061145
v 0.040514 0.005000 0.061145
v 0.040514 -0.005000 0.061145
v -0.043951 -0.005000 0.051145
v -0.043951 0.005000 0.051145
v 0.043979 0.005000 0.051145
v 0.043979 -0.005000 0.051145
v -0.043951 -0.005000 0.061145
v -0.043951 0.005000 0.061145
v 0.043979 0.005000 0.061145
v 0.043979 -0.005000 0.061145
vn -0.0000 -0.0000 1.0000
vn -0.0000 -1.0000 -0.0000
vn 1.0000 -0.0000 -0.0000
vn -1.0000 -0.0000 -0.0000
vn -0.0000 1.0000 -0.0000
vn -0.0000 -0.0000 -1.0000
vn -0.9808 -0.1951 -0.0000
vn -0.8315 -0.5556 -0.0000
vn -0.5556 -0.8315 -0.0000
vn -0.1951 -0.9808 -0.0000
vn -0.1951 0.9808 -0.0000
vn -0.5556 0.8315 -0.0000
vn -0.8315 0.5556 -0.0000
vn -0.9808 0.1951 -0.0000
vn 0.9808 0.1951 -0.0000
vn 0.8315 0.5556 -0.0000
vn 0.5556 0.8315 -0.0000
vn 0.1951 0.9808 -0.0000
vn 0.1951 -0.9808 -0.0000
vn 0.5556 -0.8315 -0.0000
vn 0.8315 -0.5556 -0.0000
vn 0.9808 -0.1951 -0.0000
vn -0.7071 -0.0000 -0.7071
vn 0.7071 -0.0000 -0.7071
vt 0.500000 0.802826
vt 0.500000 0.780600
vt 0.375000 0.079240
vt 0.500000 0.079240
vt 0.500000 0.170760
vt 0.375000 0.170760
vt 0.348587 0.802826
vt 0.500000 0.920760
vt 0.375000 0.920760
vt 0.375000 0.329240
vt 0.500000 0.329240
vt 0.500000 0.447174
vt 0.348587 0.447174
vt 0.375000 0.579240
vt 0.500000 0.579240
vt 0.500000 0.670761
vt 0.375000 0.670761
vt 0.500000 0.742264
vt 0.500000 0.951084
vt 0.500000 0.048916
vt 0.500000 0.701084
vt 0.375000 0.298916
vt 0.500000 0.298916
vt 0.375000 0.250000
vt 0.500000 0.250000
vt 0.375000 0.201084
vt 0.500000 0.201084
vt 0.372989 0.548916
vt 0.500000 0.548916
vt 0.367264 0.507736
vt 0.500000 0.507736
vt 0.358695 0.469400
vt 0.500000 0.469400
vt 0.358695 0.780600
vt 0.367264 0.742264
vt 0.372989 0.701084
vt 0.125000 0.579240
vt 0.131032 0.548916
vt 0.148209 0.523209
vt 0.173916 0.506032
vt 0.204240 0.500000
vt 0.204240 0.750000
vt 0.173916 0.743968
vt 0.148209 0.726791
vt 0.131032 0.701084
vt 0.125000 0.670760
vt 0.500000 1.000000
vt 0.500000 0.000000
vt 0.375000 0.048916
vt 0.375000 0.000000
vt 0.375000 0.951084
vt 0.375000 1.000000
vt 0.486795 0.250000
vt 0.625000 0.250000
vt 0.625000 0.500000
vt 0.449530 0.500000
vt 0.449530 0.750000
vt 0.625000 0.750000
vt 0.625000 1.000000
vt 0.486795 1.000000
vt 0.125000 0.500000
vt 0.875000 0.500000
vt 0.875000 0.750000
vt 0.375000 0.515746
vt 0.125000 0.515746
vt 0.125000 0.734254
vt 0.375000 0.734254
vt 0.125000 0.750000
vt 0.375000 0.015746
vt 0.486795 0.000000
vt 0.625000 0.000000
vt 0.375000 0.234254
s 0
f 56/1/1 57/2/1 110/2/1 106/1/1
f 10/3/2 4/4/2 50/5/2 19/6/2
f 30/7/3 56/1/3 8/8/3 9/9/3
f 20/10/4 3/11/4 55/12/4 39/13/4
f 40/14/5 51/15/5 60/16/5 29/17/5
f 28/2/6 44/1/6 105/1/6 109/2/6
f 57/2/1 58/18/1 114/18/1 110/2/1
f 7/19/1 8/8/1 88/8/1 81/19/1
f 16/20/6 37/4/6 91/4/6 94/20/6
f 58/18/1 59/21/1 115/21/1 114/18/1
f 3/11/7 20/10/7 23/22/7 2/23/7
f 2/23/8 23/22/8 22/24/8 1/25/8
f 1/25/9 22/24/9 21/26/9 49/27/9
f 49/27/10 21/26/10 19/6/10 50/5/10
f 51/15/11 40/14/11 43/28/11 52/29/11
f 52/29/12 43/28/12 42/30/12 53/31/12
f 53/31/13 42/30/13 41/32/13 54/33/13
f 54/33/14 41/32/14 39/13/14 55/12/14
f 56/1/15 30/7/15 33/34/15 57/2/15
f 57/2/16 33/34/16 32/35/16 58/18/16
f 58/18/17 32/35/17 31/36/17 59/21/17
f 59/21/18 31/36/18 29/17/18 60/16/18
f 19/37/6 21/38/6 22/39/6 23/40/6 20/41/6 39/13/6 41/32/6 42/30/6 43/28/6 40/14/6 29/17/6 31/36/6 32/35/6 33/34/6 30/7/6 9/42/6 11/43/6 12/44/6 13/45/6 10/46/6
f 45/12/6 27/33/6 95/33/6 98/12/6
f 6/47/1 7/19/1 81/19/1 85/47/1
f 62/19/1 61/8/1 76/1/1 77/2/1 78/18/1 79/21/1 80/16/1 71/15/1 72/29/1 73/31/1 74/33/1 75/12/1 66/11/1 67/23/1 68/25/1 69/27/1 70/5/1 65/4/1 64/20/1 63/47/1
f 46/11/6 45/12/6 98/12/6 99/11/6
f 15/48/6 16/20/6 94/20/6 86/48/6
f 59/21/1 60/16/1 102/16/1 115/21/1
f 27/33/6 26/31/6 89/31/6 95/33/6
f 5/20/1 6/48/1 85/48/1 93/20/1
f 25/29/12 26/31/12 73/31/12 72/29/12
f 44/1/6 38/8/6 87/8/6 105/1/6
f 50/5/1 4/4/1 92/4/1 119/5/1
f 4/4/1 5/20/1 93/20/1 92/4/1
f 37/4/6 36/5/6 120/5/6 91/4/6
f 14/19/6 15/47/6 86/47/6 82/19/6
f 8/8/1 56/1/1 106/1/1 88/8/1
f 13/49/19 5/20/19 4/4/19 10/3/19
f 12/50/20 6/48/20 5/20/20 13/49/20
f 11/51/21 7/19/21 6/47/21 12/52/21
f 9/9/22 8/8/22 7/19/22 11/51/22
f 26/31/6 25/29/6 83/29/6 89/31/6
f 38/8/3 44/1/3 76/1/3 61/8/3
f 17/23/8 18/25/8 68/25/8 67/23/8
f 34/18/17 35/21/17 79/21/17 78/18/17
f 14/19/22 38/8/22 61/8/22 62/19/22
f 45/12/4 46/11/4 66/11/4 75/12/4
f 15/47/21 14/19/21 62/19/21 63/47/21
f 26/31/13 27/33/13 74/33/13 73/31/13
f 18/25/9 24/27/9 69/27/9 68/25/9
f 27/33/14 45/12/14 75/12/14 74/33/14
f 24/27/10 36/5/10 70/5/10 69/27/10
f 16/20/20 15/48/20 63/48/20 64/20/20
f 37/4/19 16/20/19 64/20/19 65/4/19
f 44/1/15 28/2/15 77/2/15 76/1/15
f 47/16/5 48/15/5 71/15/5 80/16/5
f 35/21/18 47/16/18 80/16/18 79/21/18
f 28/2/16 34/18/16 78/18/16 77/2/16
f 48/15/11 25/29/11 72/29/11 71/15/11
f 36/5/2 37/4/2 65/4/2 70/5/2
f 46/11/7 17/23/7 67/23/7 66/11/7
f 110/2/16 114/18/16 113/18/16 109/2/16
f 102/16/5 103/15/5 104/15/5 101/16/5
f 115/21/18 102/16/18 101/16/18 116/21/18
f 93/20/20 85/48/20 86/48/20 94/20/20
f 84/29/12 90/31/12 89/31/12 83/29/12
f 119/5/2 92/4/2 91/4/2 120/5/2
f 103/15/11 84/29/11 83/29/11 104/15/11
f 85/47/21 81/19/21 82/19/21 86/47/21
f 90/31/13 96/33/13 95/33/13 89/31/13
f 106/1/15 110/2/15 109/2/15 105/1/15
f 108/23/8 112/25/8 111/25/8 107/23/8
f 100/11/7 108/23/7 107/23/7 99/11/7
f 114/18/17 115/21/17 116/21/17 113/18/17
f 118/27/10 119/5/10 120/5/10 117/27/10
f 112/25/9 118/27/9 117/27/9 111/25/9
f 92/4/19 93/20/19 94/20/19 91/4/19
f 96/33/14 97/12/14 98/12/14 95/33/14
f 97/12/4 100/11/4 99/11/4 98/12/4
f 88/8/3 106/1/3 105/1/3 87/8/3
f 81/19/22 88/8/22 87/8/22 82/19/22
f 17/23/6 46/11/6 99/11/6 107/23/6
f 34/18/6 28/2/6 109/2/6 113/18/6
f 54/33/1 55/12/1 97/12/1 96/33/1
f 18/25/6 17/23/6 107/23/6 111/25/6
f 48/15/6 47/16/6 101/16/6 104/15/6
f 53/31/1 54/33/1 96/33/1 90/31/1
f 35/21/6 34/18/6 113/18/6 116/21/6
f 52/29/1 53/31/1 90/31/1 84/29/1
f 24/27/6 18/25/6 111/25/6 117/27/6
f 51/15/1 52/29/1 84/29/1 103/15/1
f 36/5/6 24/27/6 117/27/6 120/5/6
f 49/27/1 50/5/1 119/5/1 118/27/1
f 1/25/1 49/27/1 118/27/1 112/25/1
f 60/16/1 51/15/1 103/15/1 102/16/1
f 2/23/1 1/25/1 112/25/1 108/23/1
f 25/29/6 48/15/6 104/15/6 83/29/6
f 55/12/1 3/11/1 100/11/1 97/12/1
f 38/8/6 14/19/6 82/19/6 87/8/6
f 47/16/6 35/21/6 116/21/6 101/16/6
f 3/11/1 2/23/1 108/23/1 100/11/1
f 123/53/4 127/54/4 125/55/4 121/56/4
f 139/57/3 137/58/3 138/59/3 140/60/3
f 136/56/6 131/61/6 123/61/6 121/56/6
f 131/53/2 124/54/2 127/54/2 123/53/2
f 128/55/5 136/56/5 121/56/5 125/55/5
f 128/55/1 124/62/1 122/63/1 126/58/1
f 135/64/23 132/65/23 131/61/23 136/56/23
f 129/66/24 134/67/24 133/57/24 130/68/24
f 132/65/6 135/64/6 134/67/6 129/66/6
f 129/69/2 130/70/2 122/71/2 124/54/2 131/53/2 132/72/2
f 133/57/5 126/58/5 137/58/5 139/57/5
f 124/62/3 128/55/3 141/55/3 143/62/3
f 135/64/5 136/56/5 128/55/5 126/58/5 133/57/5 134/67/5
f 126/58/4 122/63/4 146/63/4 145/58/4
f 122/71/2 130/70/2 140/70/2 138/71/2
f 130/68/6 133/57/6 139/57/6 140/68/6
f 147/58/5 145/58/5 153/58/5 155/58/5
f 143/62/3 141/55/3 149/55/3 151/62/3
f 128/55/5 125/55/5 142/55/5 141/55/5
f 122/71/2 138/71/2 148/71/2 146/71/2
f 127/54/2 124/54/2 143/54/2 144/54/2
f 137/58/5 126/58/5 145/58/5 147/58/5
f 125/55/4 127/54/4 144/54/4 142/55/4
f 138/59/3 137/58/3 147/58/3 148/59/3
f 151/62/1 149/55/1 150/55/1 152/62/1
f 153/58/1 154/63/1 156/63/1 155/58/1
f 145/58/4 146/63/4 154/63/4 153/58/4
f 150/55/5 142/55/5 158/55/5 162/55/5
f 141/55/5 142/55/5 150/55/5 149/55/5
f 146/71/2 148/71/2 156/71/2 154/71/2
f 155/58/1 156/63/1 164/63/1 163/58/1
f 144/54/2 143/54/2 151/54/2 152/54/2
f 158/55/4 157/54/4 161/54/4 162/55/4
f 160/59/3 159/58/3 163/58/3 164/59/3
f 142/55/6 144/54/6 157/54/6 158/55/6
f 156/71/2 148/71/2 160/71/2 164/71/2
f 144/54/2 152/54/2 161/54/2 157/54/2
f 152/62/1 150/55/1 162/55/1 161/62/1
f 147/58/5 155/58/5 163/58/5 159/58/5
f 148/59/6 147/58/6 159/58/6 160/59/6
